<?xml version="1.0" standalone="no"?>
<!DOCTYPE svg PUBLIC "-//W3C//DTD SVG 20010904//EN"
 "http://www.w3.org/TR/2001/REC-SVG-20010904/DTD/svg10.dtd">
<svg version="1.0" xmlns="http://www.w3.org/2000/svg"
 width="461.000000pt" height="461.000000pt" viewBox="0 0 461.000000 461.000000"
 preserveAspectRatio="xMidYMid meet">
<metadata>
Created by potrace 1.16, written by Peter Selinger 2001-2019
</metadata>
<g transform="translate(0.000000,461.000000) scale(0.100000,-0.100000)"
fill="#000000" stroke="none">
<path d="M1713 3963 c3 -614 5 -653 24 -738 51 -218 181 -455 322 -582 25 -23
50 -42 55 -43 5 0 69 46 143 103 74 56 142 107 151 112 8 6 23 15 31 22 56 42
146 112 205 158 38 30 75 55 82 55 7 0 14 4 16 8 4 10 118 102 126 102 10 0
330 -236 367 -270 17 -15 38 -30 48 -33 9 -4 17 -11 17 -17 0 -6 3 -9 8 -6 4
2 41 -23 82 -56 146 -117 229 -178 243 -178 19 0 121 110 181 193 54 76 95
156 141 277 68 179 69 184 73 898 2 432 0 642 -7 642 -6 0 -139 -128 -297
-285 l-286 -285 -567 0 -566 0 -285 285 c-157 157 -291 285 -298 285 -11 0
-13 -117 -9 -647z m805 -523 c45 -27 75 -96 66 -147 -9 -48 -57 -97 -110 -113
-36 -11 -47 -10 -87 8 -61 27 -82 61 -82 133 0 43 5 62 20 79 54 61 132 77
193 40z m852 0 c47 -24 73 -69 73 -128 0 -54 -25 -90 -84 -120 -65 -33 -141
-12 -180 51 -26 41 -22 126 7 158 53 60 117 73 184 39z"/>
<path d="M1007 4025 c-87 -24 -191 -80 -252 -137 -71 -66 -114 -135 -152 -243
l-28 -80 -3 -629 -3 -629 69 6 c140 13 273 78 366 178 61 66 126 175 131 221
2 13 8 52 14 88 7 41 11 278 11 653 l0 587 -52 -1 c-29 0 -75 -7 -101 -14z"/>
<path d="M2730 2888 c0 -8 31 -45 70 -83 l69 -69 73 70 c40 38 73 74 73 79 0
6 -56 11 -142 13 -112 2 -143 0 -143 -10z"/>
<path d="M1575 2313 c-93 -12 -286 -68 -356 -104 -72 -36 -239 -152 -247 -171
-2 -4 -7 -7 -10 -5 -4 1 -30 -21 -58 -50 -28 -29 -49 -53 -47 -53 3 0 -13 -21
-34 -47 -93 -113 -172 -252 -187 -326 -3 -12 -14 -58 -25 -102 -36 -136 -41
-233 -41 -842 l0 -593 1730 0 1730 0 0 580 0 580 -64 0 c-131 0 -321 -51 -461
-123 -157 -82 -223 -130 -305 -221 -25 -28 -64 -70 -86 -94 -47 -50 -124 -175
-149 -242 -36 -95 -85 -262 -85 -287 0 -58 -16 -8 -50 162 -6 28 -31 90 -56
139 -150 293 -339 467 -637 588 -104 42 -265 78 -347 78 l-50 0 0 570 0 570
-67 -1 c-38 -1 -81 -4 -98 -6z m135 -1585 l0 -433 -31 89 c-27 82 -78 185
-120 247 -10 14 -16 29 -12 33 3 3 1 6 -5 6 -7 0 -12 7 -12 16 0 21 -235 256
-285 285 -159 90 -239 130 -300 149 -38 12 -81 26 -95 30 -14 5 174 9 418 9
l442 1 0 -432z"/>
</g>
</svg>
