<?xml version="1.0" standalone="no"?>
<!DOCTYPE svg PUBLIC "-//W3C//DTD SVG 20010904//EN"
 "http://www.w3.org/TR/2001/REC-SVG-20010904/DTD/svg10.dtd">
<svg version="1.0" xmlns="http://www.w3.org/2000/svg"
 width="512.000000pt" height="512.000000pt" viewBox="0 0 512.000000 512.000000"
 preserveAspectRatio="xMidYMid meet">
<metadata>
Created by potrace 1.16, written by Peter Selinger 2001-2019
</metadata>
<g transform="translate(0.000000,512.000000) scale(0.100000,-0.100000)"
fill="#000000" stroke="none">
<path d="M872 4238 c4 -714 5 -719 73 -898 46 -121 87 -201 141 -277 60 -83
162 -193 181 -193 14 0 97 61 243 178 41 33 78 58 81 56 4 -2 9 3 13 11 3 8
11 15 18 15 6 0 26 13 43 29 34 33 356 271 367 271 8 0 122 -92 126 -102 2 -4
9 -8 16 -8 7 0 44 -25 82 -55 59 -46 149 -116 205 -158 8 -7 23 -16 31 -22 9
-5 77 -56 151 -112 74 -57 138 -103 143 -103 5 1 30 20 55 43 141 127 271 364
322 582 19 85 21 124 24 738 4 530 2 647 -9 647 -7 0 -141 -128 -298 -285
l-285 -285 -566 0 -567 0 -286 285 c-158 157 -291 285 -297 285 -7 0 -9 -210
-7 -642z m786 -522 c52 -27 75 -62 79 -118 6 -82 -35 -133 -122 -152 -37 -8
-110 27 -139 66 -24 34 -25 101 -2 145 31 60 124 90 184 59z m860 0 c56 -29
77 -63 77 -125 0 -72 -21 -106 -82 -133 -40 -18 -51 -19 -87 -8 -53 16 -101
65 -110 113 -9 49 25 123 69 148 37 22 97 24 133 5z"/>
<path d="M3740 3723 c0 -375 4 -612 11 -653 6 -36 12 -75 14 -88 5 -46 70
-155 131 -221 93 -100 226 -165 366 -178 l69 -6 -3 629 -3 629 -28 80 c-38
109 -81 177 -152 243 -92 85 -250 152 -359 152 l-46 0 0 -587z"/>
<path d="M1885 3159 c-4 -6 -5 -11 -4 -13 2 -1 37 -33 77 -71 l73 -69 69 69
c39 38 70 75 70 82 0 17 -275 19 -285 2z"/>
<path d="M3160 2022 l0 -572 -50 0 c-82 0 -243 -36 -347 -78 -298 -121 -487
-295 -637 -588 -25 -49 -50 -111 -56 -139 -34 -170 -50 -220 -50 -162 0 25
-49 192 -85 287 -25 67 -102 192 -149 242 -22 24 -61 66 -86 94 -82 91 -148
139 -305 221 -140 72 -330 123 -461 123 l-64 0 0 -580 0 -580 1730 0 1730 0 0
593 c0 609 -5 706 -41 842 -11 44 -22 90 -25 102 -15 74 -94 213 -187 326 -21
26 -37 47 -34 47 2 0 -19 24 -47 53 -28 29 -54 51 -58 50 -3 -2 -8 1 -10 5 -8
19 -175 135 -247 171 -99 50 -294 100 -423 108 l-98 6 0 -571z m890 -602 c-14
-4 -56 -18 -95 -30 -61 -19 -141 -59 -300 -149 -50 -29 -285 -264 -285 -285 0
-9 -5 -16 -12 -16 -6 0 -8 -3 -5 -6 4 -4 -2 -19 -12 -33 -42 -62 -93 -165
-120 -247 l-31 -89 0 433 0 432 443 -1 c243 0 431 -4 417 -9z"/>
</g>
</svg>
